<svg width="20" height="15" viewBox="0 0 20 15" fill="none" xmlns="http://www.w3.org/2000/svg">
<path d="M19.2941 4.87057C19.4439 4.7515 19.6667 4.86289 19.6667 5.05111V12.9062C19.6667 13.9242 18.8408 14.75 17.8229 14.75H1.84375C0.825846 14.75 0 13.9242 0 12.9062V5.05495C0 4.86289 0.218945 4.75534 0.372591 4.87441C1.23301 5.54277 2.37383 6.39167 6.2918 9.23796C7.10228 9.82949 8.46973 11.074 9.83333 11.0663C11.2046 11.0779 12.599 9.80645 13.3787 9.23796C17.2967 6.39167 18.4337 5.53893 19.2941 4.87057ZM9.83333 9.83333C10.7245 9.8487 12.0074 8.71172 12.6527 8.2431C17.7499 4.54408 18.1379 4.22142 19.3133 3.29954C19.5361 3.12669 19.6667 2.85781 19.6667 2.57357V1.84375C19.6667 0.825846 18.8408 0 17.8229 0H1.84375C0.825846 0 0 0.825846 0 1.84375V2.57357C0 2.85781 0.130599 3.12285 0.353385 3.29954C1.52878 4.21758 1.91673 4.54408 7.01393 8.2431C7.65924 8.71172 8.94219 9.8487 9.83333 9.83333Z" fill="white"/>
</svg>
